# xmcd CD database file generated by OrangeCD 5.2
#
# Track frame offsets:
#	195
#	14885
#	29700
#	46362
#	58372
#	69522
#	84105
#	96187
#	109397
#	125480
#	137755
#	148570
#	161285
#	173350
#	186320
#
# Disc length: 2647 seconds
#
# Revision: 1
# Processed by: cddbd v1.5.1PL0 Copyright (c) Steve Scherf et al.
# Submitted via: OrangeCD 5.2
#
DISCID=d60a550f
DTITLE=Bill Kirchen and Too Much Fun - Tombstone Every Mile
DYEAR=1993
DGENRE=Blues
TTITLE0=Bottle Baby Boogie
TTITLE1=Tombstone Every Mile
TTITLE2=Rockabilly Funeral
TTITLE3=Fool On A Stool
TTITLE4=One Woman Man
TTITLE5=Lovin' Cajun Style
TTITLE6=Think It Over
TTITLE7=Lover's Rock
TTITLE8=Cool Lovin' Baby
TTITLE9=Secrets Of Love
TTITLE10=Hole In My Pirogue
TTITLE11=Tell Me The Reason
TTITLE12=Without Love
TTITLE13=No One To Talk To (But The Blues)
TTITLE14=All Tore Up
EXTD=
EXTT0=
EXTT1=
EXTT2=
EXTT3=
EXTT4=
EXTT5=
EXTT6=
EXTT7=
EXTT8=
EXTT9=
EXTT10=
EXTT11=
EXTT12=
EXTT13=
EXTT14=
PLAYORDER=
